<?xml version="1.0" encoding="utf-8"?>
<!-- Generator: Adobe Illustrator 23.1.0, SVG Export Plug-In . SVG Version: 6.00 Build 0)  -->
<svg version="1.1" id="Слой_1" xmlns="http://www.w3.org/2000/svg" xmlns:xlink="http://www.w3.org/1999/xlink" x="0px" y="0px"
	 viewBox="0 0 21.6 17.6" style="enable-background:new 0 0 21.6 17.6;" xml:space="preserve">
<style type="text/css">
	.st0{fill-rule:evenodd;clip-rule:evenodd;fill:#FFFFFF;}
</style>
<path id="twitter_копия_6" class="st0" d="M14.7,0c1.3-0.1,2.6,0.4,3.5,1.4C19,1.3,19.7,1,20.4,0.6L21,0.3
	c-0.3,0.8-0.8,1.6-1.4,2.1c-0.1,0.1-0.3,0.2-0.5,0.3v0c0.9-0.1,1.7-0.3,2.5-0.7v0c-0.4,0.7-0.9,1.2-1.5,1.7
	c-0.2,0.2-0.5,0.4-0.7,0.6c0,1,0,1.9-0.2,2.9c-1.1,5-4,8.4-8.7,9.9c-2,0.6-4.2,0.7-6.3,0.3c-0.9-0.2-1.8-0.5-2.6-0.9
	c-0.4-0.2-0.9-0.4-1.3-0.6c-0.1-0.1-0.3-0.1-0.4-0.2c0.5,0.1,0.9,0.1,1.4,0.1c0.4-0.1,0.9-0.1,1.3-0.1c0.9-0.2,1.8-0.5,2.7-1
	c0.4-0.2,0.8-0.5,1.2-0.8c-0.5,0-0.9-0.1-1.3-0.2c-1.3-0.5-2.4-1.5-2.8-2.9c0.7,0.1,1.3,0.1,2-0.1c-0.5-0.1-1-0.3-1.4-0.6
	C1.6,9.2,0.8,7.7,0.9,6.2C1,6.3,1.2,6.3,1.3,6.4c0.3,0.1,0.6,0.2,0.9,0.3c0.2,0.1,0.4,0.1,0.6,0.1h0C2.6,6.5,2.2,6.3,2,6
	C1,4.9,0.7,3.4,1,2c0.1-0.4,0.3-0.8,0.5-1.2c0,0,0,0,0,0C1.6,1,1.8,1.1,1.9,1.3c0.4,0.5,0.8,0.9,1.3,1.3c1.6,1.3,3.4,2.2,5.4,2.6
	c0.6,0.2,1.3,0.3,2,0.3c-0.2-0.7-0.2-1.4,0-2.1c0.3-1.3,1.2-2.4,2.5-3c0.3-0.1,0.6-0.2,1-0.3L14.7,0z"/>
</svg>
