<?xml version="1.0" encoding="utf-8"?>
<!-- Generator: Adobe Illustrator 23.1.0, SVG Export Plug-In . SVG Version: 6.00 Build 0)  -->
<svg version="1.1" id="Слой_1" xmlns="http://www.w3.org/2000/svg" xmlns:xlink="http://www.w3.org/1999/xlink" x="0px" y="0px"
	 viewBox="0 0 26.1 15" style="enable-background:new 0 0 26.1 15;" xml:space="preserve">
<style type="text/css">
	.st0{fill-rule:evenodd;clip-rule:evenodd;fill:#FFFFFF;}
</style>
<path id="Shape_F_3_copy_3_копия_6" class="st0" d="M12.8,14.8h1.6c0.3,0,0.5-0.1,0.7-0.3c0.1-0.2,0.2-0.4,0.2-0.7
	c0,0,0-2.1,0.9-2.4s2.2,2,3.5,2.9c0.5,0.4,1.1,0.6,1.7,0.5l3.5,0c0,0,1.8-0.1,1-1.6c-0.7-1.1-1.6-2.2-2.6-3c-2.2-2-1.9-1.7,0.7-5.2
	c1.6-2.1,2.2-3.4,2-4c-0.2-0.5-1.4-0.4-1.4-0.4l-3.9,0c-0.2,0-0.3,0-0.5,0.1C20.1,0.9,20,1,19.9,1.2c-0.4,1.1-0.9,2.1-1.5,3.1
	c-1.7,3-2.4,3.1-2.7,2.9c-0.7-0.4-0.5-1.7-0.5-2.6c0-2.9,0.4-4.1-0.8-4.4C13.8,0,13.2,0,12.6,0c-1.1-0.1-2.2,0-3.3,0.3
	C8.8,0.5,8.5,1,8.7,1.1c0.4,0,0.9,0.2,1.2,0.6c0.3,0.6,0.4,1.2,0.4,1.8c0,0,0.2,3.4-0.5,3.8c-0.5,0.3-1.3-0.3-2.8-3
	c-0.5-0.9-1-1.9-1.4-2.9C5.4,1.2,5.3,1,5.2,0.9C5,0.8,4.8,0.7,4.6,0.7l-3.7,0c-0.3,0-0.5,0.1-0.8,0.3C0,1.1,0,1.4,0.1,1.6
	c0,0,2.9,6.8,6.2,10.3C8,13.7,10.3,14.8,12.8,14.8z"/>
</svg>
